<?xml version="1.0" encoding="utf-8"?>
<!-- Generator: Adobe Illustrator 22.1.0, SVG Export Plug-In . SVG Version: 6.00 Build 0)  -->
<svg version="1.1" id="图层_1" xmlns="http://www.w3.org/2000/svg" xmlns:xlink="http://www.w3.org/1999/xlink" x="0px" y="0px"
	 viewBox="0 0 1024 1024" style="enable-background:new 0 0 1024 1024;" xml:space="preserve">
<path d="M783.8,544.1c28.1-16.7,50.3-41,64.2-70c10.6-22.1,16.4-46.8,16.4-73c0-25.4-5.8-49.6-16.1-71.3
	c-24.2-51.1-73.5-87.9-131.9-94.4c-5.9-0.7-11.9-1-18-1.1c-9.7,0.1-19.3,1-28.5,2.6c23.6,36.9,37.2,80.6,37.2,127.5
	c0,44.5-12.1,87.8-35,125.2c-13.3,21.8-30,41.1-49.3,57.2c54.2,24.6,102.4,62.8,138.8,110.7c23.4,30.8,41.7,64.8,54.2,101.2
	c6,17.3,10.6,34.9,13.8,52.8h109.9c11,0,18.3-7.3,18.3-18.3C961.5,678,888.2,580.8,783.8,544.1L783.8,544.1z"/>
<path d="M532.7,553.2c67.8-34.8,113.6-106.3,113.6-188.8c0-44.9-14-86.5-37.8-120.9c-38.4-55.4-102.4-91.7-174.8-91.7
	c-117.3,0-212.6,95.3-212.6,212.6c0,82.5,47.7,153.9,117.3,190.6C201,597.2,102,725.5,102,875.8c0,11,7.3,18.3,18.3,18.3h635.9
	c11,0,18.3-7.3,18.3-18.3c0-21.9-2.1-43.4-6.2-64.1C744.3,688.2,651.9,587.9,532.7,553.2L532.7,553.2z"/>
</svg>
